<svg width="48" height="48" viewBox="0 0 48 48" fill="none" xmlns="http://www.w3.org/2000/svg">
  <circle cx="24" cy="24" r="24" fill="#0D7A5F"/>
  <path d="M25.72 14.6667C25.72 13.1939 24.4728 12 22.9333 12H15.7867C14.2472 12 13 13.1939 13 14.6667V33.3333C13 34.8061 14.2472 36 15.7867 36H22.9333C24.4728 36 25.72 34.8061 25.72 33.3333V14.6667Z" fill="white"/>
  <path d="M35 14.6667C35 13.1939 33.7528 12 32.2133 12H25.0667C23.5272 12 22.28 13.1939 22.28 14.6667V33.3333C22.28 34.8061 23.5272 36 25.0667 36H32.2133C33.7528 36 35 34.8061 35 33.3333V14.6667Z" fill="#BF9B30"/>
</svg>